{"title":"Double Di Trouble 2014 Punjabi DVDSCR Rip GOPI SAHI PDR","uid":10938805,"size":724964672,"categoryP":"video","categoryS":"movies","magnet":"?xt=urn:btih:916fc2f4c09ed3d43e32d5c08d2f648aff1eebce&amp;dn=Double+Di+Trouble+2014+Punjabi+DVDSCR+Rip+GOPI+SAHI+PDR&amp;tr=udp%3A%2F%2Ftracker.openbittorrent.com%3A80&amp;tr=udp%3A%2F%2Fopen.demonii.com%3A1337&amp;tr=udp%3A%2F%2Ftracker.coppersurfer.tk%3A6969&amp;tr=udp%3A%2F%2Fexodus.desync.com%3A6969","seeders":1,"leechers":1,"uploader":"jatt13","files":1,"time":1409477644,"description":"Video\nID                             : 1\nFormat                         : MPEG-4 Visual\nFormat profile                 : Advanced Simple@L5\nFormat settings, BVOP          : Yes\nFormat settings, QPel          : No\nFormat settings, GMC           : No warppoints\nFormat settings, Matrix        : Default (H.263)\nCodec ID                       : V_MS/VFW/FOURCC / XVID\nCodec ID/Hint                  : XviD\nDuration                       : 1h 49mn\nBit rate                       : 765 Kbps\nWidth                          : 640 pixels\nHeight                         : 272 pixels\nDisplay aspect ratio           : 2.35:1\nFrame rate mode                : Constant\nFrame rate                     : 29.970 fps\nColor space                    : YUV\nChroma subsampling             : 4:2:0\nBit depth                      : 8 bits\nScan type                      : Progressive\nCompression mode               : Lossy\nBits/(Pixel*Frame)             : 0.147\nStream size                    : 602 MiB (87%)\nTitle                          : GOPI SAHI\nWriting library                : XviD 1.2.1 (UTC 2008-12-04)\nLanguage                       : Panjabi\nDefault                        : Yes\nForced                         : No\n\nAudio\nID                             : 2\nFormat                         : MPEG Audio\nFormat version                 : Version 1\nFormat profile                 : Layer 3\nMode                           : Joint stereo\nMode extension                 : MS Stereo\nCodec ID                       : A_MPEG/L3\nCodec ID/Hint                  : MP3\nDuration                       : 1h 49mn\nBit rate mode                  : Constant\nBit rate                       : 96.0 Kbps\nChannel(s)                     : 2 channels\nSampling rate                  : 32.0 KHz\nCompression mode               : Lossy\nStream size                    : 75.5 MiB (11%)\nTitle                          : GOPI SAHI\nWriting library                : LAME3.99r\nEncoding settings              : -m j -V 4 -q 2 -lowpass 15.1 -b 96\nLanguage                       : Panjabi\nDefault                        : Yes\nForced                         : No\n[IMG]http://i.imgur.com/zRfnMFJ.jpg[/IMG]\n[IMG]http://i.imgur.com/YWCC1UT.jpg[/IMG]\n[IMG]http://i.imgur.com/wgXPhKB.jpg[/IMG]\n[IMG]http://i.imgur.com/z4RlMSD.jpg[/IMG]\n[IMG]http://i.imgur.com/r9uNvlm.jpg[/IMG]\n[IMG]http://i.imgur.com/ynUAarn.jpg[/IMG]\n[IMG]http://i.imgur.com/TV0Swg2.jpg[/IMG]","torrent":{"xt":"urn:btih:916fc2f4c09ed3d43e32d5c08d2f648aff1eebce","amp;dn":"Double+Di+Trouble+2014+Punjabi+DVDSCR+Rip+GOPI+SAHI+PDR","amp;tr":["udp%3A%2F%2Ftracker.openbittorrent.com%3A80","udp%3A%2F%2Fopen.demonii.com%3A1337","udp%3A%2F%2Ftracker.coppersurfer.tk%3A6969","udp%3A%2F%2Fexodus.desync.com%3A6969"],"infoHash":"916fc2f4c09ed3d43e32d5c08d2f648aff1eebce","infoHashBuffer":{"type":"Buffer","data":[145,111,194,244,192,158,211,212,62,50,213,192,141,47,100,138,255,30,235,206]},"announce":[],"urlList":[]}}